<svg width="30" height="29" viewBox="0 0 30 29" fill="none" xmlns="http://www.w3.org/2000/svg">
<path d="M27.9464 10.0861C27.9464 9.98032 27.8937 9.92283 27.7883 9.91363C27.6509 9.58249 27.0187 9.37552 26.3797 9.18236L20.4152 8.65115C20.2572 8.63735 20.0923 8.62356 20.106 8.46488H19.9411L19.7968 8.28551L15.9556 2.35944C15.3509 1.50399 14.7325 1.14525 14.4095 1.12455L14.2584 0.958984C13.7705 1.09006 13.2345 1.71785 12.8566 2.66299L10.2385 8.3545C10.0667 8.50627 10.0599 8.66495 9.90182 8.65805C9.73691 8.80982 9.72316 8.97539 9.56511 8.96159L3.34641 10.2103C2.50808 10.6449 1.82781 11.0864 1.64228 11.5624C1.60105 12.2109 2.04083 13.0526 3.25708 14.2737L7.74417 17.7921C7.74417 17.7921 7.89534 17.9645 7.8816 18.1232C8.03277 18.2957 8.01903 18.4612 8.01903 18.613L7.57925 25.9051C7.53115 26.5535 7.67546 26.8847 7.99155 27.071C8.09691 27.071 8.20227 27.0755 8.30763 27.0847C8.79551 27.1192 9.46205 26.8364 10.4447 26.5673L15.4677 23.9527C15.6258 23.9527 15.7907 23.8078 15.9556 23.8147C15.9556 23.8147 16.1137 23.8285 16.2786 23.8285L22.1606 25.6567C22.9371 26.0292 23.583 26.0706 24.0846 25.7809C24.2426 25.9533 24.2426 25.7947 24.2426 25.7947C24.5931 25.4842 24.7924 24.8495 24.6962 23.7112L23.473 17.2954C23.473 17.2954 23.4868 17.1298 23.6517 16.9849C23.5005 16.8124 23.6654 16.8262 23.6723 16.6538L27.3623 11.8453C27.7334 11.0588 27.9326 10.4172 27.9601 10.093L27.9464 10.0861Z" fill="#FDE73F"/>
<path d="M23.8234 16.5019L27.3622 11.6797C27.8844 11.0588 28.0769 10.4172 27.9463 9.92737L27.7882 9.91357L15.4951 15.0118L23.6516 16.8193C23.6516 16.8193 23.6585 16.6468 23.8303 16.5019H23.8234Z" fill="#FCD535"/>
<path d="M15.4949 15.1772L19.9407 8.4647C19.9545 8.30602 19.7964 8.29222 19.8102 8.13355L15.9484 2.37305C15.3437 1.5176 14.7321 1.00709 14.4092 0.979492L15.4949 15.1841V15.1772Z" fill="#FCD535"/>
<path d="M16.2647 23.8283L22.2979 25.6703C22.9438 25.8704 23.576 25.9049 24.0776 25.7807L15.4951 15.1772L15.9418 23.8145C15.9418 23.8145 16.0998 23.8283 16.2647 23.8283Z" fill="#FCD535"/>
<path d="M9.44147 10.3621L3.21589 11.6108C2.37757 12.0385 1.69728 12.487 1.50488 12.9699L15.3716 16.578L9.7713 10.0586C9.66135 10.1644 9.54912 10.2656 9.43459 10.3621H9.44147Z" fill="#FCD535"/>
<path d="M8.17005 28.4782L15.2134 16.564L7.74402 19.5167C7.8952 19.6891 7.88145 19.8547 7.88145 20.0134L7.44168 27.2985C7.39358 27.9332 7.53788 28.2781 7.85397 28.3057C7.85397 28.4713 8.00514 28.4782 8.16319 28.4851L8.17005 28.4782Z" fill="#FCD535"/>
<path d="M8.8917 11.5L5.84762 11.7483C4.52142 12.1071 4.49394 12.5417 5.33914 12.8866C8.29388 14.225 10.2797 14.7838 11.5922 14.7148C12.4717 14.4734 12.9459 13.9284 12.994 13.066C13.0833 11.6242 12.7741 9.57523 12.2106 6.78811C11.8121 6.31899 11.4891 6.59494 11.2898 7.74014L10.5409 10.4514C10.3553 11.1619 9.75751 11.5621 8.8917 11.5069V11.5Z" fill="white"/>
<path d="M17.2818 1.63502C16.5466 0.455323 15.7563 0.0758868 14.4714 0C13.8117 0.11728 13.317 0.262154 12.6573 0.538106C12.1351 1.00033 11.6403 1.29008 11.4342 1.93167C11.2761 1.91787 11.0837 2.38699 10.7058 3.33902C10.3347 4.12549 9.95681 5.08442 9.40709 6.02266C9.03602 6.81602 8.84363 7.28514 8.82988 7.45071C8.50692 7.43001 7.85412 7.55419 7.02954 7.83704C6.05379 7.93362 5.22234 8.20957 4.4115 8.31995C3.42201 8.57521 3.09905 8.55451 2.93413 8.71319C1.94464 8.98224 1.2781 9.26509 0.762737 9.88599C0.405419 10.3551 0.206151 10.8311 0.0274919 11.1485C0.0274919 11.3071 0.013743 11.4658 0 11.6314C0.096201 12.611 0.219889 13.2664 0.666536 13.9425C1.28497 14.4668 1.73849 14.9842 2.20576 15.336C2.19201 15.4947 2.5081 15.6879 3.12653 16.2191C3.90301 16.7503 4.51457 17.2746 5.13988 17.7989C5.75144 18.3163 6.06066 18.5026 6.05379 18.6682L6.36988 18.8406C6.3424 19.158 6.30804 19.8203 6.23932 20.9517C6.17061 22.0831 6.09502 23.2145 6.04692 24.1872C5.97134 25.3255 5.94384 25.8153 5.94384 25.8153C5.882 26.788 6.16374 27.4503 6.76843 28.1333C7.23569 28.4852 7.87474 28.6852 8.52753 28.561C8.52753 28.561 8.85049 28.5886 9.51015 28.4645C9.99803 28.3334 10.6646 28.0505 11.1525 27.9195L11.8396 27.471C11.9976 27.4779 12.3344 27.3469 12.8291 27.0502C13.5094 26.6018 14.1759 26.3051 14.8287 26.0292C15.5021 25.7463 15.8388 25.6015 15.8388 25.4428H16.0037C16.0037 25.4428 16.3198 25.629 16.8008 25.6635C17.1169 25.8429 17.591 26.0292 18.072 26.0637C18.5462 26.2499 18.7042 26.2637 18.8623 26.4362L21.8926 27.271H22.0438C22.5179 27.4779 22.8477 27.4986 23.3288 27.5262C23.9609 27.5607 24.4694 27.4296 24.7992 27.2917C25.8025 26.5397 26.1942 25.5877 26.256 24.4563C26.2766 24.132 26.3041 23.8078 26.3178 23.4904C26.3316 23.3249 26.1804 22.9868 26.0774 22.1728C25.9537 21.5105 25.8506 20.5308 25.5895 19.5374C25.4726 18.7234 25.2047 17.8886 25.2322 17.4057C25.2528 17.0883 25.5963 16.6192 26.2904 16.0052C26.8263 15.2326 27.3623 14.4461 27.7196 13.8183C28.2556 13.0387 28.5854 12.7283 28.5854 12.7283C29.1214 12.1074 29.3344 11.3071 29.5543 10.3482C29.5543 10.1895 29.5681 10.0171 29.4306 9.69971C29.4581 9.37547 29.3069 9.03743 28.8534 8.52002C28.5648 8.01641 27.7746 7.64387 26.4896 7.56109C26.4896 7.56109 26.0086 7.52659 25.2047 7.4852C24.5656 7.28513 23.7617 7.23685 22.7928 7.18166C21.9819 7.12647 21.3429 7.08507 21.0199 7.07127C20.7176 6.72633 20.7244 6.56076 20.5664 6.54696L17.3024 1.64191L17.2818 1.63502ZM25.9605 10.7759L22.4286 15.5982C22.085 15.9017 21.8926 16.3778 21.8651 16.8676C21.8445 17.1849 21.8308 17.5092 21.9613 17.8472C21.9613 17.8472 22.085 18.5026 22.1949 19.4822C22.4561 20.4825 22.5523 21.4553 22.8202 22.4418C22.9371 23.2766 23.0539 23.9251 23.0539 23.9251C23.0539 24.04 23.047 24.1481 23.0333 24.2493C22.9279 24.2401 22.8202 24.2355 22.7103 24.2355L22.566 24.063C22.408 24.0492 22.2499 24.0354 21.7621 23.8492C21.4597 23.8354 20.9718 23.6422 20.5046 23.4421C20.0236 23.4145 19.8586 23.249 19.7075 23.2352L16.3679 22.221L15.2272 22.3107C15.2272 22.3107 14.8974 22.4625 14.2446 22.5867C13.743 22.8695 12.4031 23.6008 10.3966 24.6287L9.7163 25.0702C9.55826 25.0702 9.39335 25.0496 9.22843 25.1944C9.25592 24.7115 9.30402 23.9044 9.36586 22.9316C9.43457 21.8002 9.48954 20.8275 9.54451 20.0203C9.60636 19.0407 9.6201 18.7234 9.62697 18.5647C9.68194 17.7506 9.39334 17.0814 8.62374 16.5502L4.30156 13.0318C3.69686 12.3558 3.39452 12.0039 3.39452 12.0039C3.40827 11.8452 3.55944 11.859 3.72435 11.8728L9.79876 10.4517C10.1217 10.4793 10.2798 10.4862 10.2866 10.3206L11.6609 8.95465C11.6609 8.95465 11.8602 8.46483 12.2313 7.67837C12.7741 6.74013 13.1452 5.95367 13.53 4.99473C13.901 4.20827 14.1003 3.56668 14.2721 3.41491C14.2721 3.41491 14.437 3.27003 14.5951 3.27003C14.5951 3.4425 14.8837 3.93922 15.4952 4.6291C15.9281 5.46385 16.526 6.3193 17.1169 7.17476C17.5636 7.83704 17.859 8.34755 18.0171 8.36135L18.45 9.03743C18.4362 9.36167 18.7592 9.55484 19.0478 9.89289C19.3639 10.0792 19.838 10.2585 20.4771 10.2999C20.4771 10.2999 20.9649 10.3344 21.7689 10.3827C22.4148 10.4241 23.2257 10.4724 24.1877 10.5345C24.9848 10.7345 25.6307 10.7828 25.9537 10.8035L25.9605 10.7759Z" fill="#4A1376"/>
</svg>
